<?xml version="1.0" standalone="no"?>
<!DOCTYPE svg PUBLIC "-//W3C//DTD SVG 20010904//EN"
 "http://www.w3.org/TR/2001/REC-SVG-20010904/DTD/svg10.dtd">
<svg version="1.0" xmlns="http://www.w3.org/2000/svg"
 width="283.000000pt" height="305.000000pt" viewBox="0 0 283.000000 305.000000"
 preserveAspectRatio="xMidYMid meet">

<g transform="translate(0.000000,305.000000) scale(0.100000,-0.100000)"
fill="#007bff" stroke="none">
<path d="M1433 2945 c-86 -23 -169 -71 -241 -140 l-69 -64 -78 30 c-374 146
-765 -117 -765 -513 0 -164 55 -293 172 -404 69 -64 189 -134 231 -134 16 0
18 -5 13 -27 -3 -16 -15 -80 -26 -143 -11 -63 -23 -125 -25 -137 -3 -14 -21
-29 -48 -41 -52 -23 -120 -96 -138 -148 -8 -23 -14 -78 -14 -134 1 -104 15
-145 76 -215 l31 -35 -41 -252 c-23 -139 -41 -264 -41 -279 0 -44 48 -125 92
-155 l41 -29 806 -3 c562 -2 817 0 844 8 52 15 103 63 123 116 21 54 18 110
-26 499 l-30 270 22 15 c91 61 146 149 155 247 3 32 -2 105 -11 162 -8 58 -14
105 -13 106 1 1 23 9 48 18 230 86 241 408 17 507 -58 25 -77 26 -315 16
l-192 -8 34 64 c86 162 87 361 3 522 -47 90 -156 194 -248 239 -41 21 -99 42
-129 47 -75 14 -196 11 -258 -5z m-419 -268 c47 -22 57 -30 51 -44 -80 -191
-55 -424 59 -560 l26 -30 -60 -12 c-96 -19 -195 -75 -274 -155 l-68 -69 -47
12 c-185 49 -321 236 -321 439 0 199 121 365 315 435 79 28 241 20 319 -16z
m1375 -1271 c8 -57 11 -119 7 -138 -10 -54 -60 -125 -104 -147 -70 -36 -544
-191 -583 -191 -72 0 -125 33 -160 102 -10 21 -19 54 -19 74 0 49 34 118 71
145 26 18 724 256 760 258 12 1 18 -20 28 -103z m-1599 -125 c69 -36 98 -112
85 -216 -3 -30 -16 -69 -28 -87 -27 -40 -98 -78 -147 -78 -46 0 -109 37 -133
78 -24 41 -33 134 -18 189 30 110 146 165 241 114z m1462 -551 c14 -135 30
-291 34 -347 l7 -102 -31 -30 -30 -31 -177 0 -176 0 6 48 c7 57 45 563 45 597
0 21 12 28 133 68 72 25 139 45 147 44 11 -2 20 -53 42 -247z"/>
</g>
</svg>
