<?xml version="1.0" standalone="no"?>
<!DOCTYPE svg PUBLIC "-//W3C//DTD SVG 20010904//EN"
 "http://www.w3.org/TR/2001/REC-SVG-20010904/DTD/svg10.dtd">
<svg version="1.0" xmlns="http://www.w3.org/2000/svg"
 width="437.000000pt" height="437.000000pt" viewBox="0 0 437.000000 437.000000"
 preserveAspectRatio="xMidYMid meet">

<g transform="translate(0.000000,437.000000) scale(0.100000,-0.100000)"
fill="#128140" stroke="none">
<path d="M2058 4300 c-15 -4 -29 -6 -32 -3 -2 3 -13 2 -24 -1 -41 -13 -29
-154 22 -254 25 -50 108 -142 146 -162 17 -9 24 -4 51 32 46 64 69 113 69 150
0 49 -23 136 -51 193 l-24 50 -65 2 c-36 1 -77 -2 -92 -7z"/>
<path d="M2396 4292 c-3 -5 -12 -44 -21 -88 -32 -157 -138 -425 -193 -487 -15
-17 -17 -17 -35 5 -124 154 -226 316 -284 452 -40 93 -46 101 -67 93 -19 -7
-11 -28 66 -182 142 -283 388 -566 642 -737 243 -163 476 -234 840 -259 88 -5
162 -14 164 -19 2 -5 20 -35 41 -67 70 -108 182 -184 358 -244 97 -32 113 -35
113 -16 0 7 -37 25 -87 41 -134 43 -219 91 -293 166 -66 65 -99 114 -87 127 4
3 76 10 161 14 145 8 297 22 358 35 24 5 26 8 17 26 -8 14 -17 18 -34 14 -64
-16 -362 -36 -542 -36 -299 0 -481 25 -672 92 -194 68 -408 206 -563 365 l-77
78 44 75 c103 175 213 541 168 557 -6 2 -14 0 -17 -5z"/>
<path d="M2533 4245 c15 -91 109 -222 195 -270 42 -25 144 -65 162 -65 5 0 17
35 29 78 35 130 27 178 -36 205 -56 24 -179 58 -243 67 -30 4 -68 11 -84 16
-29 7 -29 7 -23 -31z"/>
<path d="M1642 4224 c-96 -25 -123 -46 -162 -124 -49 -96 -61 -193 -38 -304
l11 -58 36 6 c110 18 157 49 198 130 35 69 53 140 52 206 -1 65 -20 152 -34
156 -5 1 -34 -4 -63 -12z"/>
<path d="M3001 4132 c-14 -28 -50 -193 -66 -304 -15 -103 -21 -461 -9 -506 4
-13 13 -22 22 -20 13 2 15 17 11 83 -12 227 8 455 57 647 28 114 28 104 9 112
-8 3 -19 -2 -24 -12z"/>
<path d="M3138 4017 c-26 -23 -60 -62 -76 -87 -28 -45 -62 -122 -62 -140 0
-18 102 -62 155 -67 42 -5 63 -1 106 19 77 36 179 126 179 159 0 12 -243 163
-254 159 -1 -1 -22 -20 -48 -43z"/>
<path d="M955 3913 c-44 -30 -95 -69 -112 -86 l-33 -32 11 -65 c11 -67 67
-177 108 -214 20 -18 21 -18 65 18 64 52 86 87 97 158 12 76 -3 182 -35 238
l-21 38 -80 -55z"/>
<path d="M2595 3860 c-86 -21 -171 -79 -220 -151 l-28 -40 39 -40 c61 -62 113
-83 187 -74 111 12 200 63 275 157 l32 41 -27 29 c-15 16 -48 42 -74 58 -37
24 -56 30 -100 29 -30 -1 -67 -4 -84 -9z"/>
<path d="M3582 3717 c-49 -37 -109 -118 -146 -199 -39 -85 -57 -206 -47 -307
l6 -65 70 3 c131 4 172 18 237 84 63 63 148 217 148 267 0 21 -23 51 -101 134
-56 58 -109 106 -118 106 -9 0 -31 -11 -49 -23z"/>
<path d="M1795 3706 c-74 -33 -111 -76 -135 -153 -32 -104 -22 -243 25 -333
14 -27 18 -28 43 -19 53 20 129 72 146 100 41 69 62 200 45 280 -14 69 -48
149 -63 148 -6 0 -34 -10 -61 -23z"/>
<path d="M641 3636 c-9 -11 2 -25 54 -70 81 -71 175 -189 242 -302 63 -104
131 -270 117 -284 -18 -18 -352 -32 -601 -26 -233 7 -242 6 -252 -13 -10 -18
-6 -20 75 -26 137 -12 702 2 843 19 472 60 843 198 1154 428 62 46 67 52 53
66 -14 14 -19 14 -48 -9 -270 -202 -571 -332 -936 -403 -70 -14 -151 -26 -181
-28 l-54 -3 -37 95 c-64 166 -130 278 -243 411 -56 65 -156 159 -170 159 -2 0
-10 -6 -16 -14z"/>
<path d="M1227 3566 c-93 -39 -155 -96 -204 -190 -15 -29 -15 -31 13 -53 16
-13 52 -35 81 -50 50 -27 53 -27 115 -14 111 23 221 105 273 204 l20 39 -30
24 c-84 68 -169 81 -268 40z"/>
<path d="M436 3388 c-25 -35 -62 -94 -82 -132 l-36 -70 43 -37 c24 -21 77 -52
116 -68 63 -27 85 -31 160 -31 136 0 136 0 128 79 -12 121 -29 164 -87 216
-51 46 -153 105 -182 105 -8 0 -35 -28 -60 -62z"/>
<path d="M2063 3150 c-62 -7 -160 -48 -184 -76 -11 -13 -8 -24 15 -67 63 -114
95 -131 236 -132 101 0 109 2 173 34 38 19 70 38 73 42 8 14 -44 106 -80 142
-25 25 -51 38 -99 50 -37 10 -67 16 -69 16 -2 -1 -31 -5 -65 -9z"/>
<path d="M4096 3061 c-6 -10 20 -104 39 -141 13 -25 75 -69 75 -53 0 4 -16 52
-37 106 -27 72 -41 97 -54 97 -10 0 -20 -4 -23 -9z"/>
<path d="M2765 2963 c-16 -2 -50 -8 -74 -15 l-43 -11 6 -41 c22 -133 119 -210
266 -210 64 0 150 22 150 38 0 16 -25 96 -41 128 -16 36 -94 86 -161 104 -29
7 -57 13 -63 12 -5 0 -23 -3 -40 -5z"/>
<path d="M2483 2778 c11 -285 72 -564 189 -860 48 -125 52 -154 19 -145 -9 2
-101 59 -206 127 -104 68 -213 138 -241 156 l-51 33 -184 -120 c-101 -65 -188
-119 -194 -119 -5 0 -25 35 -43 78 -82 188 -248 465 -399 664 -110 146 -253
310 -267 305 -28 -9 -11 -41 70 -133 194 -222 367 -478 501 -743 80 -159 93
-191 74 -191 -5 0 -54 18 -109 40 -194 76 -408 132 -662 171 -125 20 -186 23
-440 23 -162 1 -334 -3 -383 -7 -81 -8 -87 -10 -87 -31 0 -21 3 -22 52 -15 29
5 131 11 227 15 l173 7 -7 -24 c-3 -13 -35 -83 -70 -156 -61 -124 -174 -292
-238 -351 -23 -22 -27 -62 -6 -62 13 0 130 141 183 220 58 87 127 219 158 305
l23 65 81 0 c176 0 434 -37 657 -94 134 -35 370 -117 402 -140 15 -11 -9 -30
-204 -155 l-221 -143 0 -458 c0 -251 -3 -459 -6 -462 -3 -4 -42 7 -87 24 -138
50 -528 140 -543 125 -8 -8 124 -131 226 -211 113 -89 165 -126 177 -126 8 0
24 -7 36 -15 22 -14 27 -12 104 45 44 32 84 56 87 53 3 -4 6 -54 6 -112 l0
-106 61 -28 c101 -47 422 -137 544 -152 141 -18 479 -18 615 -1 119 15 454
109 546 153 l59 28 5 210 5 210 95 17 c139 24 181 26 191 8 5 -8 22 -51 39
-95 40 -105 44 -112 64 -96 13 11 14 17 2 40 -7 14 -25 59 -40 98 l-25 73 22
5 c12 3 87 9 166 13 136 7 144 8 159 31 l16 23 -114 -6 c-179 -11 -314 -25
-449 -47 -68 -10 -126 -18 -128 -16 -2 2 -2 93 -1 202 l3 198 92 -114 c51 -63
113 -136 137 -164 41 -46 46 -49 61 -34 15 15 9 24 -69 113 -47 54 -117 139
-156 190 l-70 92 0 145 0 144 -144 93 -143 93 -42 90 c-24 50 -40 93 -37 96 2
3 51 -13 108 -35 394 -152 837 -225 1256 -206 141 6 152 8 152 26 0 18 -6 19
-167 12 -424 -17 -903 67 -1262 221 -60 25 -82 30 -90 22 -17 -17 -23 -4 -86
185 -84 256 -135 539 -135 754 0 79 -1 84 -22 84 -21 0 -21 -1 -15 -152z
m-315 -1850 l-3 -133 -132 -3 -133 -3 0 136 0 135 135 0 136 0 -3 -132z m320
0 l-3 -133 -132 -3 -133 -3 0 136 0 135 135 0 136 0 -3 -132z m-320 -310 l-3
-133 -132 -3 -133 -3 0 136 0 135 135 0 136 0 -3 -132z m317 -3 l0 -130 -132
-3 -133 -3 0 136 0 136 133 -3 132 -3 0 -130z"/>
<path d="M1750 2894 c-60 -16 -90 -39 -127 -98 -55 -86 -76 -209 -57 -328 8
-44 18 -46 109 -23 90 24 144 85 185 209 19 57 22 82 17 146 -3 42 -9 84 -13
93 -8 21 -39 21 -114 1z"/>
<path d="M3185 2783 c-41 -126 -40 -198 3 -286 66 -134 167 -228 301 -282 105
-42 96 -46 127 47 42 122 40 210 -5 298 -68 132 -176 230 -308 279 -95 36 -86
41 -118 -56z"/>
<path d="M177 2848 c-15 -12 -66 -187 -82 -282 -6 -37 -5 -38 18 -32 39 9 110
53 144 88 38 40 93 141 93 173 0 19 -11 26 -65 44 -76 24 -86 25 -108 9z"/>
<path d="M505 2683 c-41 -128 -40 -187 8 -287 75 -158 187 -251 369 -306 26
-8 27 -7 55 73 21 61 28 101 28 157 -1 67 -5 83 -37 145 -80 154 -198 249
-373 299 -19 5 -24 -4 -50 -81z"/>
<path d="M4164 2737 c-104 -66 -131 -102 -153 -205 -24 -113 -7 -222 54 -342
l25 -50 53 30 c132 75 161 121 161 255 0 130 -51 347 -81 344 -4 0 -31 -15
-59 -32z"/>
<path d="M2003 2529 c-78 -10 -113 -28 -158 -83 -79 -97 -117 -223 -107 -358
l4 -58 48 0 c27 0 73 5 101 11 69 15 135 81 185 185 31 64 36 88 41 168 3 51
3 105 -1 120 -7 29 -9 29 -113 15z"/>
<path d="M1249 2438 c-51 -70 -62 -104 -54 -173 12 -105 61 -195 141 -259 l37
-30 29 35 c57 66 71 106 64 176 -11 110 -69 210 -158 274 l-27 20 -32 -43z"/>
<path d="M2775 2435 c-5 -2 -32 -6 -58 -10 l-49 -6 7 -62 c9 -89 33 -168 58
-197 41 -47 106 -91 179 -121 70 -29 78 -30 186 -27 66 3 117 9 124 16 17 17
-7 166 -35 222 -47 91 -195 173 -332 184 -38 2 -74 3 -80 1z"/>
<path d="M77 2423 c-3 -5 -9 -64 -13 -131 l-7 -122 39 -17 c50 -21 157 -28
212 -13 42 11 43 12 37 43 -19 94 -36 136 -68 163 -57 48 -187 98 -200 77z"/>
<path d="M2243 2259 c-38 -11 -38 -10 -18 -76 19 -63 56 -97 133 -119 47 -14
67 -15 116 -6 32 6 60 13 62 15 8 7 -28 113 -44 131 -46 50 -173 79 -249 55z"/>
<path d="M4233 2177 c-86 -75 -164 -161 -226 -249 -60 -84 -117 -183 -117
-202 0 -27 30 -17 48 16 76 140 219 320 326 407 61 51 85 91 53 91 -7 0 -45
-28 -84 -63z"/>
<path d="M3665 2106 c-65 -31 -124 -91 -158 -160 -43 -87 -41 -95 23 -122 30
-13 69 -23 85 -24 47 0 145 52 191 101 39 43 94 143 94 171 0 18 -102 58 -148
58 -20 0 -59 -11 -87 -24z"/>
<path d="M4262 2075 c-37 -16 -37 -19 0 -107 31 -74 44 -78 52 -16 10 86 7
138 -6 138 -7 -1 -28 -7 -46 -15z"/>
<path d="M805 1872 c-76 -37 -135 -95 -167 -163 -45 -95 -45 -92 18 -119 103
-42 182 -23 274 69 44 44 100 142 100 175 0 17 -76 54 -129 62 -27 4 -51 -2
-96 -24z"/>
<path d="M90 1833 c0 -20 22 -127 39 -191 14 -49 32 -54 105 -23 l45 20 -24
62 c-34 85 -69 121 -142 143 -18 6 -23 3 -23 -11z"/>
<path d="M3568 1528 c-14 -46 -29 -101 -32 -123 -16 -117 98 -310 234 -392 78
-48 151 -78 159 -65 3 5 25 38 49 74 50 76 63 133 47 198 -30 116 -131 251
-233 312 -59 35 -161 78 -185 78 -7 0 -25 -37 -39 -82z"/>
<path d="M4176 1553 c-16 -4 -17 -11 -12 -54 11 -84 17 -87 43 -19 12 34 23
66 23 71 0 9 -22 10 -54 2z"/>
<path d="M347 1521 c-69 -40 -115 -84 -123 -116 -5 -21 3 -49 34 -116 52 -115
151 -281 163 -273 22 13 57 83 68 132 15 73 14 187 -4 247 -18 62 -66 155 -80
154 -5 0 -32 -13 -58 -28z"/>
<path d="M765 1333 c-18 -56 -28 -112 -29 -153 -1 -57 4 -74 38 -140 82 -158
189 -246 368 -300 26 -8 27 -7 55 73 21 61 28 101 28 157 -1 67 -5 83 -37 145
-72 140 -179 232 -322 281 -38 13 -70 24 -72 24 -1 0 -14 -39 -29 -87z"/>
</g>
</svg>
