<?xml version="1.0" encoding="UTF-8"?>      
<svg xmlns="http://www.w3.org/2000/svg" xmlns:xlink="http://www.w3.org/1999/xlink" width="120" height="120" viewBox="0 0 2100 2100">
<path fill-rule="evenodd" fill="#ffffff" fill-opacity="1" d="M 1015.910156 1161.984375 C 1022.609375 1167.644531 1024.941406 1173.820312 1031.96875 1181.617188 C 1042.671875 1192.59375 1018.628906 1341.761719 1010.441406 1360.914062 L 935.890625 1147.765625 L 927.742188 1148.84375 C 816.601562 1176.8125 674.058594 1184.753906 674.503906 1332.621094 C 675.0625 1516.015625 656.535156 1518.316406 761.558594 1516.109375 C 807.335938 1515.148438 853.617188 1516.304688 899.535156 1515.933594 L 1213.148438 1515.933594 C 1259.058594 1516.304688 1305.351562 1515.148438 1351.121094 1516.109375 C 1456.148438 1518.316406 1437.621094 1516.015625 1438.179688 1332.621094 C 1438.621094 1184.753906 1296.078125 1176.8125 1184.941406 1148.84375 L 1176.789062 1147.765625 L 1102.25 1360.914062 C 1094.050781 1341.761719 1070.011719 1192.59375 1080.710938 1181.617188 C 1087.738281 1173.820312 1090.070312 1167.644531 1096.769531 1161.984375 C 1106.550781 1152.570312 1110.140625 1152.378906 1109.628906 1135.980469 C 1099.21875 1132.671875 1077.941406 1130.96875 1056.339844 1130.875 C 1034.75 1130.96875 1013.460938 1132.671875 1003.050781 1135.980469 C 1002.539062 1152.378906 1006.128906 1152.570312 1015.910156 1161.984375 "/>
<path fill-rule="evenodd" fill="#ffffff" fill-opacity="1" d="M 1241.101562 709.101562 C 1251.300781 743.988281 1252.171875 777.691406 1248.050781 815.128906 L 1246.191406 821.261719 C 1282.949219 838.5 1263.929688 923.171875 1235.070312 931.640625 L 1225.488281 933.210938 C 1207.230469 1009.800781 1137.828125 1100.769531 1056.339844 1098.058594 C 974.847656 1100.769531 905.449219 1009.800781 887.195312 933.210938 L 877.617188 931.640625 C 848.757812 923.171875 829.734375 838.5 866.492188 821.261719 L 864.628906 815.128906 C 860.507812 777.691406 861.378906 743.988281 871.578125 709.101562 C 892.089844 638.929688 973.703125 592.011719 1056.339844 589.460938 C 1138.980469 592.011719 1220.589844 638.929688 1241.101562 709.101562 "/>
</svg>
