<?xml version="1.0" encoding="UTF-8"?>
<svg xmlns="http://www.w3.org/2000/svg" xmlns:xlink="http://www.w3.org/1999/xlink" width="628pt" height="148pt" viewBox="0 0 628 148" version="1.1">
<g id="surface1">
<path style=" stroke:none;fill-rule:evenodd;fill:rgb(47.799683%,75.698853%,25.898743%);fill-opacity:1;" d="M 104.675781 74.667969 C 112.367188 75.082031 121.984375 74.914063 130.664063 75.90625 C 138.757813 76.835938 153.953125 77.335938 157.621094 68.867188 C 162.667969 57.207031 147.890625 39.132813 137.898438 33.828125 C 126.582031 27.820313 101.320313 20.042969 92.226563 33.347656 C 87.953125 39.605469 88.34375 46.8125 96.941406 55.546875 C 104.226563 63.796875 103.710938 68.871094 104.675781 74.667969 Z M 104.507813 75.398438 C 103.609375 77.039063 104.867188 80.601563 108.066406 83.371094 C 111.5625 87.746094 113.320313 92.34375 114.671875 96.453125 C 118.941406 109.484375 92.574219 96.347656 89.367188 94.5625 C 83.308594 91.191406 77.390625 87.625 71.617188 83.867188 C 67.613281 80.117188 67.046875 77.332031 68.515625 74.582031 C 70.371094 71.105469 80.984375 72.625 88.507813 74.371094 C 94.269531 75.707031 98.898438 74.933594 104.507813 75.398438 "/>
<path style=" stroke:none;fill-rule:evenodd;fill:rgb(79.598999%,86.698914%,36.099243%);fill-opacity:1;" d="M 103.804688 74.777344 C 100.886719 74.375 97.003906 73.90625 92.917969 73.421875 C 76.28125 71.449219 53.019531 68.21875 46.949219 49.328125 C 45.15625 42 47.984375 34.597656 53.507813 29.617188 C 59.957031 22.746094 72.496094 31.257813 77.480469 35.726563 C 81.382813 39.222656 85.644531 44.523438 89.285156 49.984375 C 93.195313 55.847656 95.324219 61.261719 97.933594 67.582031 C 99.132813 70.484375 100.855469 73.132813 103.804688 74.777344 Z M 105.289063 75.496094 C 109.378906 79.855469 119.308594 80.226563 124.945313 79.199219 C 132.160156 77.882813 140.152344 77.941406 149.210938 79.882813 C 160.710938 82.296875 166.550781 87.859375 165.5625 97.214844 C 161.371094 101.359375 156.789063 104.617188 151.644531 106.582031 C 143.957031 109.515625 131.921875 109.550781 125.03125 104.632813 C 122.363281 102.726563 119.683594 99.605469 116.976563 94.34375 C 114.335938 87.96875 109.996094 80.445313 105.289063 75.496094 "/>
<path style=" stroke:none;fill-rule:evenodd;fill:rgb(0%,45.098877%,69.398499%);fill-opacity:1;" d="M 207.671875 81.378906 L 207.671875 92.078125 C 205.796875 93.707031 203.851563 94.949219 201.832031 95.753906 C 199.839844 96.578125 197.746094 96.992188 195.605469 96.992188 C 190.863281 96.992188 187.019531 95.460938 184.101563 92.394531 C 181.15625 89.332031 179.699219 85.316406 179.699219 80.355469 C 179.699219 75.613281 181.183594 71.671875 184.125 68.511719 C 187.09375 65.347656 190.738281 63.765625 195.117188 63.765625 C 197.769531 63.765625 200.082031 64.300781 202.050781 65.394531 C 203.996094 66.492188 205.628906 68.144531 206.890625 70.332031 L 204.992188 71.648438 C 204.019531 69.726563 202.804688 68.265625 201.347656 67.316406 C 199.910156 66.34375 198.230469 65.859375 196.335938 65.859375 C 193.148438 65.859375 190.617188 67.171875 188.769531 69.796875 C 186.898438 72.425781 185.972656 76.027344 185.972656 80.550781 C 185.972656 84.925781 186.871094 88.332031 188.648438 90.765625 C 190.425781 93.199219 192.90625 94.414063 196.09375 94.414063 C 197.332031 94.414063 198.476563 94.21875 199.546875 93.832031 C 200.617188 93.464844 201.539063 92.90625 202.316406 92.175781 L 202.316406 81.378906 Z M 214.1875 96.214844 L 214.1875 64.449219 L 224.597656 64.449219 C 228.539063 64.449219 231.507813 65.25 233.523438 66.804688 C 235.542969 68.363281 236.566406 70.699219 236.566406 73.738281 C 236.566406 76.027344 235.835938 77.824219 234.425781 79.140625 C 232.992188 80.453125 230.945313 81.183594 228.296875 81.328125 L 236.710938 96.214844 L 230.097656 96.214844 L 221.582031 80.113281 C 224.914063 79.894531 227.273438 79.261719 228.660156 78.238281 C 230.023438 77.21875 230.726563 75.636719 230.726563 73.496094 C 230.726563 71.136719 230.046875 69.386719 228.683594 68.242188 C 227.324219 67.074219 225.253906 66.492188 222.507813 66.492188 L 220.074219 66.492188 L 220.074219 96.214844 Z M 242.453125 64.449219 L 248.339844 64.449219 L 248.339844 83.613281 C 248.339844 87.359375 248.871094 89.960938 249.917969 91.421875 C 250.964844 92.882813 252.714844 93.636719 255.199219 93.636719 C 257.703125 93.636719 259.453125 92.882813 260.5 91.421875 C 261.519531 89.960938 262.058594 87.359375 262.058594 83.613281 L 262.058594 64.449219 L 264.878906 64.449219 L 264.878906 84.683594 C 264.878906 88.792969 263.953125 91.859375 262.082031 93.925781 C 260.230469 95.96875 257.4375 96.992188 253.6875 96.992188 C 252.035156 96.992188 250.429688 96.699219 248.898438 96.09375 C 247.363281 95.484375 246.125 94.679688 245.128906 93.636719 C 244.179688 92.613281 243.472656 91.445313 243.058594 90.132813 C 242.671875 88.84375 242.453125 87.019531 242.453125 84.683594 Z M 278.597656 81.085938 L 281.222656 81.085938 C 283.851563 81.085938 285.84375 80.527344 287.132813 79.382813 C 288.445313 78.261719 289.105469 76.535156 289.105469 74.273438 C 289.105469 71.648438 288.445313 69.703125 287.15625 68.410156 C 285.84375 67.148438 283.875 66.492188 281.222656 66.492188 L 278.597656 66.492188 Z M 272.710938 96.214844 L 272.710938 64.449219 L 284.09375 64.449219 C 287.472656 64.449219 290.148438 65.296875 292.070313 66.976563 C 294.019531 68.679688 294.992188 70.964844 294.992188 73.882813 C 294.992188 76.730469 294.089844 78.96875 292.3125 80.597656 C 290.515625 82.226563 288.058594 83.03125 284.921875 83.03125 L 278.597656 83.03125 L 278.597656 96.214844 Z M 324.203125 80.402344 C 324.203125 76.050781 323.277344 72.546875 321.429688 69.847656 C 319.582031 67.148438 317.199219 65.808594 314.277344 65.808594 C 311.382813 65.808594 309 67.148438 307.152344 69.847656 C 305.277344 72.546875 304.355469 76.050781 304.355469 80.402344 C 304.355469 84.710938 305.277344 88.234375 307.152344 90.910156 C 309 93.609375 311.382813 94.949219 314.277344 94.949219 C 317.171875 94.949219 319.558594 93.609375 321.429688 90.933594 C 323.277344 88.234375 324.203125 84.734375 324.203125 80.402344 Z M 314.277344 96.992188 C 312.066406 96.992188 309.972656 96.601563 308.027344 95.800781 C 306.082031 94.996094 304.328125 93.832031 302.796875 92.273438 C 301.242188 90.742188 300.074219 88.941406 299.296875 86.921875 C 298.492188 84.902344 298.078125 82.714844 298.078125 80.402344 C 298.078125 78.042969 298.492188 75.832031 299.296875 73.8125 C 300.097656 71.792969 301.289063 70.019531 302.847656 68.484375 C 304.378906 66.976563 306.15625 65.808594 308.101563 64.984375 C 310.070313 64.179688 312.136719 63.765625 314.277344 63.765625 C 316.007813 63.765625 317.683594 64.035156 319.3125 64.570313 C 320.941406 65.105469 322.476563 65.90625 323.910156 66.929688 C 326.050781 68.484375 327.679688 70.40625 328.824219 72.742188 C 329.96875 75.050781 330.527344 77.605469 330.527344 80.402344 C 330.527344 82.738281 330.113281 84.925781 329.3125 86.945313 C 328.484375 88.964844 327.316406 90.742188 325.757813 92.273438 C 324.179688 93.832031 322.425781 94.996094 320.480469 95.800781 C 318.535156 96.601563 316.46875 96.992188 314.277344 96.992188 Z M 350.691406 96.214844 L 350.691406 64.449219 L 361.101563 64.449219 C 365.042969 64.449219 368.007813 65.25 370.027344 66.804688 C 372.046875 68.363281 373.066406 70.699219 373.066406 73.738281 C 373.066406 76.027344 372.339844 77.824219 370.929688 79.140625 C 369.492188 80.453125 367.449219 81.183594 364.796875 81.328125 L 373.214844 96.214844 L 366.597656 96.214844 L 358.085938 80.113281 C 361.417969 79.894531 363.777344 79.261719 365.164063 78.238281 C 366.523438 77.21875 367.230469 75.636719 367.230469 73.496094 C 367.230469 71.136719 366.550781 69.386719 365.1875 68.242188 C 363.824219 67.074219 361.757813 66.492188 359.007813 66.492188 L 356.578125 66.492188 L 356.578125 96.214844 Z M 379.050781 96.214844 L 379.050781 64.449219 L 398.703125 64.449219 L 398.703125 66.832031 L 384.9375 66.832031 L 384.9375 78.457031 L 397.730469 78.457031 L 397.730469 80.839844 L 384.9375 80.839844 L 384.9375 93.832031 L 398.703125 93.832031 L 398.703125 96.214844 Z M 431.226563 88.671875 C 429.984375 91.347656 428.257813 93.417969 426.046875 94.851563 C 423.832031 96.285156 421.277344 96.992188 418.335938 96.992188 C 413.980469 96.992188 410.355469 95.433594 407.484375 92.320313 C 404.589844 89.207031 403.15625 85.21875 403.15625 80.355469 C 403.15625 75.613281 404.640625 71.671875 407.582031 68.511719 C 410.550781 65.347656 414.199219 63.765625 418.578125 63.765625 C 421.230469 63.765625 423.539063 64.300781 425.507813 65.394531 C 427.453125 66.492188 429.085938 68.144531 430.351563 70.332031 L 428.453125 71.648438 C 427.480469 69.726563 426.265625 68.265625 424.804688 67.316406 C 423.367188 66.34375 421.691406 65.859375 419.792969 65.859375 C 416.605469 65.859375 414.078125 67.171875 412.230469 69.796875 C 410.355469 72.425781 409.433594 76.027344 409.433594 80.550781 C 409.433594 84.953125 410.308594 88.355469 412.082031 90.765625 C 413.859375 93.199219 416.363281 94.414063 419.550781 94.414063 C 421.691406 94.414063 423.589844 93.832031 425.242188 92.636719 C 426.894531 91.472656 428.234375 89.71875 429.28125 87.457031 Z M 459.902344 80.402344 C 459.902344 76.050781 458.976563 72.546875 457.128906 69.847656 C 455.28125 67.148438 452.898438 65.808594 449.980469 65.808594 C 447.085938 65.808594 444.699219 67.148438 442.851563 69.847656 C 440.980469 72.546875 440.054688 76.050781 440.054688 80.402344 C 440.054688 84.710938 440.980469 88.234375 442.851563 90.910156 C 444.699219 93.609375 447.085938 94.949219 449.980469 94.949219 C 452.871094 94.949219 455.257813 93.609375 457.128906 90.933594 C 458.976563 88.234375 459.902344 84.734375 459.902344 80.402344 Z M 449.980469 96.992188 C 447.765625 96.992188 445.671875 96.601563 443.726563 95.800781 C 441.78125 94.996094 440.03125 93.832031 438.496094 92.273438 C 436.941406 90.742188 435.773438 88.941406 434.996094 86.921875 C 434.191406 84.902344 433.777344 82.714844 433.777344 80.402344 C 433.777344 78.042969 434.191406 75.832031 434.996094 73.8125 C 435.796875 71.792969 436.988281 70.019531 438.546875 68.484375 C 440.078125 66.976563 441.855469 65.808594 443.800781 64.984375 C 445.769531 64.179688 447.839844 63.765625 449.980469 63.765625 C 451.707031 63.765625 453.382813 64.035156 455.011719 64.570313 C 456.644531 65.105469 458.175781 65.90625 459.609375 66.929688 C 461.75 68.484375 463.378906 70.40625 464.523438 72.742188 C 465.667969 75.050781 466.226563 77.605469 466.226563 80.402344 C 466.226563 82.738281 465.8125 84.925781 465.011719 86.945313 C 464.183594 88.964844 463.015625 90.742188 461.460938 92.273438 C 459.878906 93.832031 458.128906 94.996094 456.179688 95.800781 C 454.234375 96.601563 452.167969 96.992188 449.980469 96.992188 Z M 472.113281 96.214844 L 472.113281 64.449219 L 482.523438 64.449219 C 486.464844 64.449219 489.429688 65.25 491.449219 66.804688 C 493.46875 68.363281 494.488281 70.699219 494.488281 73.738281 C 494.488281 76.027344 493.761719 77.824219 492.351563 79.140625 C 490.914063 80.453125 488.871094 81.183594 486.21875 81.328125 L 494.636719 96.214844 L 488.019531 96.214844 L 479.507813 80.113281 C 482.839844 79.894531 485.199219 79.261719 486.585938 78.238281 C 487.945313 77.21875 488.652344 75.636719 488.652344 73.496094 C 488.652344 71.136719 487.972656 69.386719 486.609375 68.242188 C 485.246094 67.074219 483.179688 66.492188 480.433594 66.492188 L 478 66.492188 L 478 96.214844 Z M 506.3125 66.832031 L 506.3125 93.832031 L 509.8125 93.832031 C 511.734375 93.832031 513.292969 93.660156 514.558594 93.320313 C 515.796875 92.980469 516.820313 92.46875 517.644531 91.738281 C 518.933594 90.621094 519.933594 89.0625 520.636719 87.09375 C 521.34375 85.097656 521.683594 82.835938 521.683594 80.257813 C 521.683594 75.929688 520.566406 72.621094 518.300781 70.308594 C 516.039063 68 512.78125 66.832031 508.550781 66.832031 Z M 500.472656 96.214844 L 500.472656 64.449219 L 508.257813 64.449219 C 514.460938 64.449219 519.300781 65.929688 522.777344 68.851563 C 526.257813 71.792969 528.007813 75.855469 528.007813 81.035156 C 528.007813 85.585938 526.574219 89.257813 523.75 92.054688 C 520.90625 94.828125 517.160156 96.214844 512.488281 96.214844 Z M 536.375 85.753906 L 545.617188 85.753906 L 540.996094 74.175781 Z M 529.46875 96.214844 L 542.503906 63.816406 L 556.078125 96.214844 L 549.800781 96.214844 L 546.492188 87.75 L 535.546875 87.75 L 532.289063 96.214844 Z M 559.96875 96.214844 L 559.96875 64.449219 L 570.378906 64.449219 C 574.320313 64.449219 577.285156 65.25 579.304688 66.804688 C 581.324219 68.363281 582.347656 70.699219 582.347656 73.738281 C 582.347656 76.027344 581.617188 77.824219 580.203125 79.140625 C 578.769531 80.453125 576.726563 81.183594 574.074219 81.328125 L 582.492188 96.214844 L 575.875 96.214844 L 567.363281 80.113281 C 570.695313 79.894531 573.054688 79.261719 574.441406 78.238281 C 575.804688 77.21875 576.507813 75.636719 576.507813 73.496094 C 576.507813 71.136719 575.828125 69.386719 574.464844 68.242188 C 573.101563 67.074219 571.035156 66.492188 568.285156 66.492188 L 565.855469 66.492188 L 565.855469 96.214844 L 559.96875 96.214844 "/>
<path style=" stroke:none;fill-rule:evenodd;fill:rgb(40.79895%,74.099731%,28.599548%);fill-opacity:1;" d="M 582.246094 108.332031 L 197.527344 108.332031 C 190.164063 108.332031 185.917969 113.636719 185.917969 121.226563 L 182.394531 121.226563 C 182.394531 111.253906 188.875 104.914063 196.238281 104.914063 L 582.246094 104.914063 L 582.246094 108.332031 "/>
</g>
</svg>
